HIERARCHY
ROOT Root
{
  OFFSET 0.0 0.0 0.0
  CHANNELS 6 Xposition Yposition Zposition Zrotation Yrotation Xrotation
  JOINT Hips
  {
    OFFSET 0.0 100.0 0.0
    CHANNELS 6 Xposition Yposition Zposition Zrotation Yrotation Xrotation
    JOINT Spine1
    {
      OFFSET 5.003913 -0.037094 -0.013727
      CHANNELS 3 Zrotation Yrotation Xrotation
      JOINT Spine2
      {
        OFFSET 7.125363 -1e-06 0.0
        CHANNELS 3 Zrotation Yrotation Xrotation
        JOINT Chest
        {
          OFFSET 7.594027 1e-06 0.0
          CHANNELS 3 Zrotation Yrotation Xrotation
          JOINT Neck1
          {
            OFFSET 26.313086 -0.460272 -0.181672
            CHANNELS 3 Zrotation Yrotation Xrotation
            JOINT Neck2
            {
              OFFSET 8.045911 0.0 0.0
              CHANNELS 3 Zrotation Yrotation Xrotation
              JOINT Head
              {
                OFFSET 6.432774 0.0 0.0
                CHANNELS 3 Zrotation Yrotation Xrotation
                JOINT HeadEnd
                {
                  OFFSET 16.169773 0.06451 0.00362
                  CHANNELS 3 Zrotation Yrotation Xrotation
                }
                JOINT Jaw
                {
                  OFFSET 0.108741 3.12938 0.002639
                  CHANNELS 3 Zrotation Yrotation Xrotation
                }
                JOINT LeftEye
                {
                  OFFSET 4.45173 8.166359 3.206392
                  CHANNELS 3 Zrotation Yrotation Xrotation
                }
                JOINT RightEye
                {
                  OFFSET 4.436895 8.135758 -3.222429
                  CHANNELS 3 Zrotation Yrotation Xrotation
                }
              }
            }
          }
          JOINT LeftShoulder
          {
            OFFSET 23.218927 5.195579 1.621656
            CHANNELS 3 Zrotation Yrotation Xrotation
            JOINT LeftArm
            {
              OFFSET 15.902118 2e-06 -2e-06
              CHANNELS 3 Zrotation Yrotation Xrotation
              JOINT LeftForeArm
              {
                OFFSET 28.739307 0.0 -1e-06
                CHANNELS 3 Zrotation Yrotation Xrotation
                JOINT LeftHand
                {
                  OFFSET 27.093981 -4e-06 0.0
                  CHANNELS 3 Zrotation Yrotation Xrotation
                  JOINT LeftHandThumb1
                  {
                    OFFSET 2.276781 3.380274 0.83384
                    CHANNELS 3 Zrotation Yrotation Xrotation
                    JOINT LeftHandThumb2
                    {
                      OFFSET 4.705309 -1e-06 -1e-06
                      CHANNELS 3 Zrotation Yrotation Xrotation
                      JOINT LeftHandThumb3
                      {
                        OFFSET 2.798515 0.0 3e-06
                        CHANNELS 3 Zrotation Yrotation Xrotation
                        JOINT LeftHandThumbEnd
                        {
                          OFFSET 3.180793 4e-06 -4e-06
                          CHANNELS 3 Zrotation Yrotation Xrotation
                        }
                      }
                    }
                  }
                  JOINT LeftHandIndex1
                  {
                    OFFSET 3.247786 2.352677 0.137192
                    CHANNELS 3 Zrotation Yrotation Xrotation
                    JOINT LeftHandIndex2
                    {
                      OFFSET 6.367095 1e-06 0.0
                      CHANNELS 3 Zrotation Yrotation Xrotation
                      JOINT LeftHandIndex3
                      {
                        OFFSET 3.662364 0.0 0.0
                        CHANNELS 3 Zrotation Yrotation Xrotation
                        JOINT LeftHandIndex4
                        {
                          OFFSET 2.329242 4e-06 -4e-06
                          CHANNELS 3 Zrotation Yrotation Xrotation
                          JOINT LeftHandIndexEnd
                          {
                            OFFSET 2.767823 1e-06 0.0
                            CHANNELS 3 Zrotation Yrotation Xrotation
                          }
                        }
                      }
                    }
                  }
                  JOINT LeftHandMiddle1
                  {
                    OFFSET 3.163612 0.945023 -0.406112
                    CHANNELS 3 Zrotation Yrotation Xrotation
                    JOINT LeftHandMiddle2
                    {
                      OFFSET 6.276789 3e-06 0.0
                      CHANNELS 3 Zrotation Yrotation Xrotation
                      JOINT LeftHandMiddle3
                      {
                        OFFSET 4.35652 -1e-06 4e-06
                        CHANNELS 3 Zrotation Yrotation Xrotation
                        JOINT LeftHandMiddle4
                        {
                          OFFSET 2.996877 0.0 8e-06
                          CHANNELS 3 Zrotation Yrotation Xrotation
                          JOINT LeftHandMiddleEnd
                          {
                            OFFSET 2.323256 3e-06 -4e-06
                            CHANNELS 3 Zrotation Yrotation Xrotation
                          }
                        }
                      }
                    }
                  }
                  JOINT LeftHandRing1
                  {
                    OFFSET 2.882606 -0.309162 0.107445
                    CHANNELS 3 Zrotation Yrotation Xrotation
                    JOINT LeftHandRing2
                    {
                      OFFSET 6.033198 0.0 4e-06
                      CHANNELS 3 Zrotation Yrotation Xrotation
                      JOINT LeftHandRing3
                      {
                        OFFSET 4.350578 3e-06 0.0
                        CHANNELS 3 Zrotation Yrotation Xrotation
                        JOINT LeftHandRing4
                        {
                          OFFSET 2.651321 2e-06 -7e-06
                          CHANNELS 3 Zrotation Yrotation Xrotation
                          JOINT LeftHandRingEnd
                          {
                            OFFSET 1.937663 1e-06 -4e-06
                            CHANNELS 3 Zrotation Yrotation Xrotation
                          }
                        }
                      }
                    }
                  }
                  JOINT LeftHandPinky1
                  {
                    OFFSET 2.865315 -1.525436 0.575687
                    CHANNELS 3 Zrotation Yrotation Xrotation
                    JOINT LeftHandPinky2
                    {
                      OFFSET 5.54936 1e-06 -8e-06
                      CHANNELS 3 Zrotation Yrotation Xrotation
                      JOINT LeftHandPinky3
                      {
                        OFFSET 3.070974 0.0 -4e-06
                        CHANNELS 3 Zrotation Yrotation Xrotation
                        JOINT LeftHandPinky4
                        {
                          OFFSET 1.549672 1e-06 0.0
                          CHANNELS 3 Zrotation Yrotation Xrotation
                          JOINT LeftHandPinkyEnd
                          {
                            OFFSET 1.952123 0.0 0.0
                            CHANNELS 3 Zrotation Yrotation Xrotation
                          }
                        }
                      }
                    }
                  }
                }
              }
            }
          }
          JOINT RightShoulder
          {
            OFFSET 23.161716 5.296122 -1.380114
            CHANNELS 3 Zrotation Yrotation Xrotation
            JOINT RightArm
            {
              OFFSET -16.027195 -2e-06 1.1e-05
              CHANNELS 3 Zrotation Yrotation Xrotation
              JOINT RightForeArm
              {
                OFFSET -28.736639 4e-06 2e-06
                CHANNELS 3 Zrotation Yrotation Xrotation
                JOINT RightHand
                {
                  OFFSET -27.133619 6e-06 0.0
                  CHANNELS 3 Zrotation Yrotation Xrotation
                  JOINT RightHandThumb1
                  {
                    OFFSET -2.274328 -3.351035 -0.83067
                    CHANNELS 3 Zrotation Yrotation Xrotation
                    JOINT RightHandThumb2
                    {
                      OFFSET -4.703594 -3e-06 2e-06
                      CHANNELS 3 Zrotation Yrotation Xrotation
                      JOINT RightHandThumb3
                      {
                        OFFSET -2.794935 -4e-06 -3e-06
                        CHANNELS 3 Zrotation Yrotation Xrotation
                        JOINT RightHandThumbEnd
                        {
                          OFFSET -3.183852 4e-06 1e-06
                          CHANNELS 3 Zrotation Yrotation Xrotation
                        }
                      }
                    }
                  }
                  JOINT RightHandIndex1
                  {
                    OFFSET -3.253496 -2.33755 -0.127667
                    CHANNELS 3 Zrotation Yrotation Xrotation
                    JOINT RightHandIndex2
                    {
                      OFFSET -6.344434 0.0 0.0
                      CHANNELS 3 Zrotation Yrotation Xrotation
                      JOINT RightHandIndex3
                      {
                        OFFSET -3.654871 0.0 -8e-06
                        CHANNELS 3 Zrotation Yrotation Xrotation
                        JOINT RightHandIndex4
                        {
                          OFFSET -2.327586 -1e-06 0.0
                          CHANNELS 3 Zrotation Yrotation Xrotation
                          JOINT RightHandIndexEnd
                          {
                            OFFSET -2.770001 3e-06 8e-06
                            CHANNELS 3 Zrotation Yrotation Xrotation
                          }
                        }
                      }
                    }
                  }
                  JOINT RightHandMiddle1
                  {
                    OFFSET -3.168223 -0.944764 0.411762
                    CHANNELS 3 Zrotation Yrotation Xrotation
                    JOINT RightHandMiddle2
                    {
                      OFFSET -6.266691 -1e-06 -4e-06
                      CHANNELS 3 Zrotation Yrotation Xrotation
                      JOINT RightHandMiddle3
                      {
                        OFFSET -4.348901 0.0 0.0
                        CHANNELS 3 Zrotation Yrotation Xrotation
                        JOINT RightHandMiddle4
                        {
                          OFFSET -3.00024 2e-06 -4e-06
                          CHANNELS 3 Zrotation Yrotation Xrotation
                          JOINT RightHandMiddleEnd
                          {
                            OFFSET -2.321477 -4e-06 -4e-06
                            CHANNELS 3 Zrotation Yrotation Xrotation
                          }
                        }
                      }
                    }
                  }
                  JOINT RightHandRing1
                  {
                    OFFSET -2.885654 0.293261 -0.119232
                    CHANNELS 3 Zrotation Yrotation Xrotation
                    JOINT RightHandRing2
                    {
                      OFFSET -6.032835 -1e-06 -4e-06
                      CHANNELS 3 Zrotation Yrotation Xrotation
                      JOINT RightHandRing3
                      {
                        OFFSET -4.33881 0.0 -4e-06
                        CHANNELS 3 Zrotation Yrotation Xrotation
                        JOINT RightHandRing4
                        {
                          OFFSET -2.654903 -4e-06 -4e-06
                          CHANNELS 3 Zrotation Yrotation Xrotation
                          JOINT RightHandRingEnd
                          {
                            OFFSET -1.935122 0.0 4e-06
                            CHANNELS 3 Zrotation Yrotation Xrotation
                          }
                        }
                      }
                    }
                  }
                  JOINT RightHandPinky1
                  {
                    OFFSET -2.866241 1.503904 -0.60527
                    CHANNELS 3 Zrotation Yrotation Xrotation
                    JOINT RightHandPinky2
                    {
                      OFFSET -5.553177 -2e-06 0.0
                      CHANNELS 3 Zrotation Yrotation Xrotation
                      JOINT RightHandPinky3
                      {
                        OFFSET -3.062664 -1e-06 -4e-06
                        CHANNELS 3 Zrotation Yrotation Xrotation
                        JOINT RightHandPinky4
                        {
                          OFFSET -1.546529 2e-06 4e-06
                          CHANNELS 3 Zrotation Yrotation Xrotation
                          JOINT RightHandPinkyEnd
                          {
                            OFFSET -1.952341 0.0 -4e-06
                            CHANNELS 3 Zrotation Yrotation Xrotation
                          }
                        }
                      }
                    }
                  }
                }
              }
            }
          }
        }
      }
    }
    JOINT LeftLeg
    {
      OFFSET -8.443107 2.567604 10.043214
      CHANNELS 3 Zrotation Yrotation Xrotation
      JOINT LeftShin
      {
        OFFSET 43.229198 1e-06 -1e-06
        CHANNELS 3 Zrotation Yrotation Xrotation
        JOINT LeftFoot
        {
          OFFSET 42.298611 1e-06 1e-06
          CHANNELS 3 Zrotation Yrotation Xrotation
          JOINT LeftToeBase
          {
            OFFSET 14.165858 1e-06 0.0
            CHANNELS 3 Zrotation Yrotation Xrotation
            JOINT LeftToeEnd
            {
              OFFSET 6.7141 -0.234461 0.0
              CHANNELS 3 Zrotation Yrotation Xrotation
            }
          }
        }
      }
    }
    JOINT RightLeg
    {
      OFFSET -8.303923 2.592729 -10.047278
      CHANNELS 3 Zrotation Yrotation Xrotation
      JOINT RightShin
      {
        OFFSET -43.369682 0.0 1e-06
        CHANNELS 3 Zrotation Yrotation Xrotation
        JOINT RightFoot
        {
          OFFSET -42.260784 4e-06 2e-06
          CHANNELS 3 Zrotation Yrotation Xrotation
          JOINT RightToeBase
          {
            OFFSET -14.222245 -2e-06 -1e-06
            CHANNELS 3 Zrotation Yrotation Xrotation
            JOINT RightToeEnd
            {
              OFFSET -6.660062 0.232574 -2e-06
              CHANNELS 3 Zrotation Yrotation Xrotation
            }
          }
        }
      }
    }
  }
}
MOTION
Frames: 4
Frame Time: 0.03333333333333333
0.0 0.0 0.0 0.0 -0.0 0.0 0.137465 99.201164 -1.40058 89.018196 3.031946 91.534042 -4.069156 0.247788 -0.032723 -12.248126 -0.439482 0.331823 18.41366 -1.149933 -2.665779 30.762308 -1.970372 2.593258 -2.669741 -0.269075 0.453396 -37.707111 1.018175 -1.341198 6e-06 0.0 0.0 0.119302 -0.015586 -0.069563 0.037538 -0.126287 -0.104456 0.04763 0.090105 -0.0293 -175.693039 -80.32019 -173.769287 50.136688 -16.550808 -54.758717 50.236092 1.423592 -0.177726 -7.769181 7.144813 -82.069534 17.636639 -26.322741 52.411209 -19.466665 -14.395597 29.410395 -0.0 -8.774823 -2e-06 15.99539 -17.141748 6.026666 -0.609776 -1.795655 -3.889327 -4.807087 -11.046811 -2.937852 4e-06 -20.976019 -1e-06 -5.019968 -25.03356 -4.031881 6e-06 0.0 1e-06 -10.634537 -5.686972 -3.565586 10.573276 -17.922951 -3.113903 2e-06 -13.821211 1e-06 -0.501779 -31.181505 -4.027011 -10.78514 -57.987343 6.404682 -13.982716 -7.150199 -2.875043 13.772732 -8.401493 -3.218242 0.347733 -34.211555 0.771658 -0.963027 -17.733372 2.621021 -1e-06 2e-06 1e-06 -17.346422 -20.095221 -4.201783 21.757563 -1.638376 3.866429 2e-06 -6.338825 0.0 -1.69759 -22.591751 -6.19401 0.0 -4e-06 0.0 -21.908199 -80.552795 -146.556137 37.083767 -14.928651 -60.92268 53.815613 -0.355709 0.790065 -5.786804 12.037231 -80.352959 22.182114 -20.375891 49.933304 -16.701813 -16.74353 28.47653 -2e-06 -12.6906 -2e-06 15.104598 -17.403605 4.052675 -0.10592 -1.513857 -4.275882 -5.039041 -5.612873 -2.953556 4e-06 -11.02052 -3e-06 -6.111299 -15.89533 -3.840467 3e-06 -1e-06 -1e-06 -10.283372 -5.680289 -4.341835 11.028296 -11.302404 -2.372633 -1.38427 -14.238578 -6.32012 -0.625439 -26.924183 -3.8276 -5.293801 -49.363255 -2.029553 -13.708525 -7.363477 -3.720936 18.141146 -14.052735 -3.242675 1.1e-05 -18.78727 -4e-06 -0.429712 -8.456042 2.555505 1e-06 -1e-06 1e-06 -15.923536 -20.094482 -5.473583 30.41921 -7.190826 1.735927 4e-06 -8.162927 0.0 -1.861902 -22.861467 -6.167946 -1e-06 -3e-06 -1e-06 174.581055 -5.860593 -0.357753 21.597151 -0.079349 0.228567 -82.358711 1.462462 -4.996695 -5.726674 1.481715 2.126552 -0.999999 0.0 -0.0 -2.630034 -3.156002 -6.309985 19.088097 0.014964 -0.009778 -81.198845 -8.863851 -8.413804 -6.496054 0.656346 1.625545 -1.000001 -0.0 -0.0 
0.0 0.0 0.0 0.0 -0.0 0.0 0.170108 99.192871 -1.484061 89.034401 3.005774 91.501595 -4.0124 0.247031 -0.036575 -12.235031 -0.416602 0.35523 18.390003 -1.150127 -2.686009 30.775713 -2.016789 2.583498 -2.664487 -0.274362 0.408379 -37.633335 1.039978 -1.41425 6e-06 -0.0 0.0 0.117631 -0.01144 -0.055505 0.052604 -0.123077 -0.090224 0.063203 0.095332 -0.015382 -175.987579 -80.235718 -173.531219 50.145763 -16.496504 -54.648853 50.708252 1.469161 -0.083319 -7.874214 7.101587 -81.945206 17.636625 -26.322733 52.411205 -19.466658 -14.395598 29.410389 0.0 -8.774822 -1e-06 15.958554 -17.14064 6.04044 -0.609776 -1.795654 -3.889325 -4.80709 -11.04681 -2.93785 2e-06 -20.976015 -0.0 -5.01997 -25.03356 -4.031878 6e-06 2e-06 1e-06 -10.634536 -5.68697 -3.565589 10.573275 -17.922949 -3.113901 -0.0 -13.821208 1e-06 -0.50178 -31.181505 -4.027012 -10.785618 -57.964478 6.38908 -13.982712 -7.150197 -2.87504 13.772729 -8.401489 -3.218242 0.347728 -34.211544 0.771658 -0.963031 -17.733366 2.621021 -0.0 0.0 1e-06 -17.346422 -20.095217 -4.201779 21.757563 -1.638374 3.866426 1e-06 -6.338821 1e-06 -1.697595 -22.591736 -6.194002 1e-06 -6e-06 -3e-06 -23.18708 -80.596886 -145.322006 37.248657 -14.663969 -61.166824 54.191334 -0.212317 0.925197 -6.04786 12.257582 -80.529633 22.182117 -20.375896 49.933319 -16.701807 -16.743528 28.476526 -3e-06 -12.690598 -1e-06 15.052684 -17.348631 4.116343 -0.105918 -1.513855 -4.275883 -5.039042 -5.61287 -2.953555 4e-06 -11.020519 -2e-06 -6.111293 -15.895329 -3.840472 1e-06 -1e-06 -1e-06 -10.283368 -5.680285 -4.34184 11.028294 -11.302404 -2.372633 -1.384268 -14.238578 -6.320119 -0.625439 -26.924185 -3.827602 -5.321916 -49.334129 -1.952699 -13.708525 -7.363475 -3.720941 18.141146 -14.052737 -3.242672 1e-05 -18.787266 -1e-06 -0.429712 -8.456041 2.555506 -0.0 -1e-06 0.0 -15.923536 -20.094479 -5.473587 30.41921 -7.190825 1.735927 4e-06 -8.162927 -0.0 -1.8619 -22.861467 -6.167943 1e-06 -3e-06 -1e-06 174.471283 -5.832827 -0.375291 21.686827 -0.079416 0.229231 -82.353439 1.470139 -4.97731 -5.725779 1.481283 2.124602 -1.0 0.0 -0.0 -2.774766 -3.202835 -6.292774 19.223906 0.020812 -0.01048 -81.209068 -8.865462 -8.425186 -6.509079 0.653423 1.620535 -1.000002 -0.0 0.0 
0.0 0.0 0.0 0.0 -0.0 0.0 0.197458 99.190552 -1.568279 89.055031 2.957582 91.469345 -3.951287 0.243494 -0.057593 -12.233667 -0.406608 0.37587 18.348766 -1.154119 -2.696922 30.663031 -2.03352 2.562198 -2.662453 -0.29037 0.378325 -37.504555 1.046357 -1.483232 6e-06 -0.0 0.0 0.116475 -0.008855 -0.044629 0.063715 -0.118238 -0.079119 0.072987 0.095961 -0.004935 -176.471191 -80.213066 -173.111496 50.184483 -16.471565 -54.625492 51.133495 1.525839 -0.027182 -7.955249 7.09801 -81.750153 17.636621 -26.322733 52.411201 -19.466648 -14.395598 29.410385 0.0 -8.774821 0.0 15.879289 -17.158678 6.082991 -0.609775 -1.795654 -3.889327 -4.807087 -11.046805 -2.937852 2e-06 -20.976009 2e-06 -5.019972 -25.033546 -4.031877 6e-06 0.0 1e-06 -10.634535 -5.686971 -3.565588 10.573271 -17.922945 -3.113899 0.0 -13.821201 2e-06 -0.501782 -31.181488 -4.02701 -10.796803 -57.900394 6.395361 -13.982712 -7.150197 -2.875042 13.772727 -8.401488 -3.218241 0.347728 -34.21154 0.771659 -0.963031 -17.733366 2.62102 -0.0 0.0 -0.0 -17.346416 -20.095213 -4.201779 21.757555 -1.638375 3.866426 1e-06 -6.338821 0.0 -1.697592 -22.591738 -6.194003 -0.0 -3e-06 -2e-06 -24.532917 -80.633636 -144.055878 37.517151 -14.404393 -61.452969 54.501682 -0.030828 1.03516 -6.377225 12.529781 -80.73835 22.182112 -20.375898 49.933327 -16.701809 -16.743526 28.47653 -2e-06 -12.6906 0.0 14.981424 -17.311584 4.155113 -0.105921 -1.513854 -4.275882 -5.03904 -5.612871 -2.953557 2e-06 -11.020525 -2e-06 -6.111298 -15.895334 -3.840469 1e-06 -1e-06 -0.0 -10.283371 -5.680289 -4.341842 11.028292 -11.302406 -2.372629 -1.384269 -14.238581 -6.320121 -0.625442 -26.924187 -3.827599 -5.316999 -49.224648 -1.911311 -13.708523 -7.363477 -3.720942 18.14115 -14.05274 -3.242676 6e-06 -18.78727 -1e-06 -0.429711 -8.456046 2.555505 -1e-06 0.0 2e-06 -15.923536 -20.094486 -5.473588 30.419214 -7.190825 1.735928 4e-06 -8.16293 0.0 -1.861903 -22.861473 -6.167943 -0.0 -3e-06 0.0 174.355499 -5.808852 -0.406342 21.733625 -0.078471 0.227116 -82.318962 1.480362 -4.968834 -5.738587 1.47399 2.119153 -0.999999 0.0 -0.0 -2.928738 -3.255812 -6.327983 19.330505 0.027169 -0.019584 -81.205208 -8.827681 -8.404119 -6.512941 0.647428 1.61525 -1.000002 -1e-06 -0.0 
0.0 0.0 0.0 0.0 -0.0 0.0 0.220436 99.192223 -1.647184 89.085373 2.895342 91.423531 -3.893044 0.230079 -0.086873 -12.230072 -0.406722 0.386031 18.282558 -1.168384 -2.699278 30.416891 -2.03748 2.529951 -2.673176 -0.295745 0.371077 -37.31477 1.049079 -1.530376 6e-06 0.0 0.0 0.112578 -0.00803 -0.039958 0.064798 -0.111818 -0.074089 0.072616 0.091479 -0.001188 -177.053894 -80.215477 -172.574768 50.226311 -16.460075 -54.601341 51.523357 1.605283 -0.028107 -7.960061 7.170255 -81.58152 17.636625 -26.322725 52.411182 -19.466658 -14.395594 29.410378 -2e-06 -8.774819 -1e-06 15.806561 -17.192623 6.118249 -0.609776 -1.795653 -3.889326 -4.807086 -11.046807 -2.93785 5e-06 -20.976011 -1e-06 -5.019969 -25.033554 -4.031878 5e-06 3e-06 -0.0 -10.634527 -5.686968 -3.565586 10.573269 -17.922945 -3.1139 1e-06 -13.821205 2e-06 -0.501779 -31.181494 -4.027012 -10.813581 -57.852596 6.401893 -13.982709 -7.150196 -2.87504 13.772724 -8.401489 -3.218242 0.347736 -34.21154 0.771654 -0.963028 -17.733366 2.621019 -0.0 -0.0 1e-06 -17.346411 -20.095207 -4.201779 21.757551 -1.638376 3.866426 1e-06 -6.338821 1e-06 -1.69759 -22.591734 -6.194001 -1e-06 -2e-06 -1e-06 -26.070045 -80.63903 -142.645279 37.862389 -14.174987 -61.752098 54.738106 0.170092 1.113806 -6.732343 12.844263 -80.985031 22.182108 -20.375891 49.9333 -16.701807 -16.743528 28.476517 -3e-06 -12.690598 -1e-06 14.900842 -17.290621 4.171921 -0.105921 -1.513856 -4.275879 -5.039041 -5.612869 -2.953555 4e-06 -11.02052 -4e-06 -6.111294 -15.89533 -3.840468 1e-06 -1e-06 -2e-06 -10.283369 -5.680285 -4.341838 11.028289 -11.302403 -2.37263 -1.384269 -14.238575 -6.320117 -0.625437 -26.924185 -3.827598 -5.281562 -49.072388 -1.907394 -13.708519 -7.363472 -3.720938 18.141146 -14.052737 -3.242673 7e-06 -18.787266 -1e-06 -0.429713 -8.456042 2.555505 0.0 0.0 -0.0 -15.923536 -20.094479 -5.473581 30.41921 -7.190827 1.735924 3e-06 -8.162925 -1e-06 -1.8619 -22.861464 -6.167939 -0.0 -3e-06 -2e-06 174.25032 -5.783178 -0.46037 21.739765 -0.074309 0.219091 -82.266373 1.508728 -4.989003 -5.773223 1.457087 2.112521 -0.999998 0.0 -0.0 -3.091286 -3.311831 -6.368024 19.425804 0.03229 -0.031359 -81.201691 -8.768604 -8.368876 -6.508156 0.639017 1.610647 -1.000003 0.0 -0.0 
